HIERARCHY
ROOT Hips
{
 OFFSET 0.000000 0.000000 0.000000
 CHANNELS 6 Xposition Yposition Zposition Yrotation Xrotation Zrotation
 JOINT Chest
 {
  OFFSET 0.000000 9.585900 0.002600
  CHANNELS 3 Yrotation Xrotation Zrotation
  JOINT Chest2
  {
   OFFSET 0.000000 9.601200 -0.005300
   CHANNELS 3 Yrotation Xrotation Zrotation
   JOINT Chest3
   {
    OFFSET 0.000000 9.561800 0.000000
    CHANNELS 3 Yrotation Xrotation Zrotation
    JOINT Chest4
    {
     OFFSET 0.000000 9.552100 0.000000
     CHANNELS 3 Yrotation Xrotation Zrotation
     JOINT Neck
     {
      OFFSET 0.000000 14.453000 0.000000
      CHANNELS 3 Yrotation Xrotation Zrotation
      JOINT Head
      {
       OFFSET 0.000000 8.936500 -0.011300
       CHANNELS 3 Yrotation Xrotation Zrotation
       End Site
       {
        OFFSET 0.000000 17.073600 -0.006000
       }
      }
     }
     JOINT RightCollar
     {
      OFFSET -2.921100 9.558500 0.000000
      CHANNELS 3 Yrotation Xrotation Zrotation
      JOINT RightShoulder
      {
       OFFSET -13.519700 0.000000 0.000000
       CHANNELS 3 Yrotation Xrotation Zrotation
       JOINT RightElbow
       {
        OFFSET 0.000000 -29.696600 0.000000
        CHANNELS 3 Yrotation Xrotation Zrotation
        JOINT RightWrist
        {
         OFFSET 0.000000 -24.004700 0.000000
         CHANNELS 3 Yrotation Xrotation Zrotation
         End Site
         {
          OFFSET 0.000000 -17.728500 0.000000
         }
        }
       }
      }
     }
     JOINT LeftCollar
     {
      OFFSET 2.921100 9.558500 0.000000
      CHANNELS 3 Yrotation Xrotation Zrotation
      JOINT LeftShoulder
      {
       OFFSET 13.519700 0.000000 0.000000
       CHANNELS 3 Yrotation Xrotation Zrotation
       JOINT LeftElbow
       {
        OFFSET 0.000000 -29.696600 0.000000
        CHANNELS 3 Yrotation Xrotation Zrotation
        JOINT LeftWrist
        {
         OFFSET 0.000000 -24.004700 0.000000
         CHANNELS 3 Yrotation Xrotation Zrotation
         End Site
         {
          OFFSET 0.000000 -17.728500 0.000000
         }
        }
       }
      }
     }
    }
   }
  }
 }
 JOINT RightHip
 {
  OFFSET -7.771700 -0.012900 -0.001300
  CHANNELS 3 Yrotation Xrotation Zrotation
  JOINT RightKnee
  {
   OFFSET 0.000000 -40.869800 0.001200
   CHANNELS 3 Yrotation Xrotation Zrotation
   JOINT RightAnkle
   {
    OFFSET 0.000000 -39.717900 0.002100
    CHANNELS 3 Yrotation Xrotation Zrotation
    JOINT RightToe
    {
     OFFSET 0.000000 -4.965400 11.033500
     CHANNELS 3 Yrotation Xrotation Zrotation
     End Site
     {
      OFFSET 0.000000 -1.423100 5.872300
     }
    }
   }
  }
 }
 JOINT LeftHip
 {
  OFFSET 7.771700 -0.012900 -0.001300
  CHANNELS 3 Yrotation Xrotation Zrotation
  JOINT LeftKnee
  {
   OFFSET 0.000000 -40.869800 0.001200
   CHANNELS 3 Yrotation Xrotation Zrotation
   JOINT LeftAnkle
   {
    OFFSET 0.000000 -39.717900 0.002100
    CHANNELS 3 Yrotation Xrotation Zrotation
    JOINT LeftToe
    {
     OFFSET 0.000000 -4.965400 11.033500
     CHANNELS 3 Yrotation Xrotation Zrotation
     End Site
     {
      OFFSET 0.000000 -1.423100 5.872300
     }
    }
   }
  }
 }
}
MOTION
Frames: 8
Frame Time: 0.008333
-51.360719 56.267989 -18.680674 -176.773172 -12.567849 -0.496686 -0.798556 15.768053 -0.336917 -0.035461 1.559249 0.069635 -0.047892 2.558132 0.042633 -0.247983 14.116009 0.422857 0.392172 11.039670 2.646012 -0.193432 -14.044402 2.709722 0.220670 -0.833431 1.787217 -0.096299 -8.355607 -7.320622 -78.560871 -53.967053 113.343302 -18.166679 -10.637185 -4.169831 -8.273588 -3.002452 1.836117 0.737984 -15.552890 8.162908 63.412497 -49.662348 -110.707324 9.120666 -5.420284 0.212186 -3.293509 -62.846067 10.953552 -32.828857 84.910964 -37.089508 -10.817983 -18.338167 13.203519 0.346386 0.127456 -0.417462 17.985359 -56.953257 -22.357305 68.742071 71.557579 69.840386 -7.229330 -14.980896 0.973411 0.154279 0.770373 0.070757
-51.366611 56.266711 -18.671195 -176.735114 -12.563574 -0.472929 -0.842310 15.746816 -0.387829 -0.032181 1.543927 0.048836 -0.038924 2.565502 0.041073 -0.230000 14.123662 0.402783 0.378002 10.987063 2.852629 -0.256505 -14.098917 2.937528 0.226011 -0.827279 1.798286 -0.056311 -8.375081 -7.398821 -78.520367 -53.953502 113.269093 -18.196371 -10.645994 -4.140808 -8.275460 -2.971383 1.868310 0.751187 -15.439065 8.178571 63.356044 -49.723726 -110.628047 9.084632 -5.362792 0.194074 -3.344006 -62.842648 10.926022 -32.695475 84.927384 -36.978697 -10.920309 -18.439681 13.363615 0.372856 0.107938 -0.404271 18.003573 -56.944967 -22.417360 68.717908 71.544674 69.808894 -7.271942 -15.030752 0.971160 0.183681 0.831694 0.088334
-51.369754 56.267090 -18.664756 -176.719851 -12.582250 -0.468111 -0.848032 15.737101 -0.428875 -0.029971 1.545792 0.046583 -0.034371 2.570464 0.041980 -0.209614 14.132437 0.382840 0.358644 10.936910 3.054297 -0.324233 -14.150900 3.162078 0.223806 -0.825701 1.811522 -0.048776 -8.377397 -7.411023 -78.501127 -53.979704 113.239877 -18.202678 -10.625442 -4.120203 -8.281847 -2.942900 1.899349 0.758769 -15.323135 8.196895 63.297529 -49.781208 -110.549435 9.048660 -5.294921 0.185160 -3.412125 -62.814751 10.935117 -32.710601 84.938249 -37.004697 -10.947948 -18.553359 13.507282 0.375049 0.091017 -0.397874 18.020008 -56.915969 -22.432355 68.647246 71.540857 69.732294 -7.278559 -15.021347 0.991447 0.180283 0.839341 0.085687
-51.369435 56.269557 -18.663531 -176.710696 -12.636599 -0.490622 -0.840100 15.764465 -0.435191 -0.027385 1.547771 0.044091 -0.033389 2.581276 0.048753 -0.186482 14.137839 0.355872 0.336728 10.889296 3.248888 -0.393300 -14.200256 3.380280 0.220282 -0.828420 1.824248 -0.039950 -8.377538 -7.424522 -78.517510 -53.955466 113.227958 -18.167812 -10.566162 -4.104664 -8.221203 -2.906745 1.871991 0.680798 -15.217622 8.268851 63.229965 -49.829985 -110.469364 9.018411 -5.220718 0.181519 -3.521203 -62.748647 10.990372 -32.855546 84.943268 -37.155101 -10.901185 -18.648410 13.623777 0.392692 0.053001 -0.381134 18.025752 -56.853385 -22.399880 68.561312 71.556989 69.675373 -7.316297 -15.021818 0.985939 0.215326 0.846696 0.107143
-51.370664 56.272597 -18.660911 -176.724694 -12.687595 -0.504095 -0.809162 15.790446 -0.442152 -0.025050 1.550432 0.041867 -0.041488 2.599335 0.069788 -0.159834 14.135227 0.315667 0.312724 10.846021 3.434017 -0.462553 -14.245145 3.589296 0.216806 -0.833621 1.833303 -0.040913 -8.373413 -7.421625 -78.528409 -53.947538 113.221750 -18.140585 -10.508718 -4.089149 -8.191547 -2.874887 1.874946 0.644773 -15.103628 8.303746 63.144709 -49.865689 -110.387200 8.995080 -5.149500 0.180682 -3.605246 -62.685116 11.044315 -32.848672 84.943672 -37.159804 -10.872373 -18.726544 13.732394 0.396248 0.017188 -0.360470 18.023153 -56.800139 -22.359869 68.517293 71.561462 69.645982 -7.336876 -15.024178 0.983004 0.237617 0.851181 0.115217
-51.374270 56.275383 -18.653554 -176.732153 -12.714022 -0.508174 -0.781777 15.791976 -0.457349 -0.022713 1.552970 0.040065 -0.037727 2.603260 0.066689 -0.150040 14.147808 0.305148 0.289066 10.809144 3.607609 -0.528912 -14.283389 3.786201 0.217685 -0.840998 1.837075 -0.061757 -8.363244 -7.389810 -78.493436 -54.039233 113.227270 -18.199360 -10.543755 -4.098369 -8.192068 -2.854630 1.905426 0.654111 -14.974956 8.304473 63.040138 -49.882625 -110.300210 8.974150 -5.092723 0.182802 -3.673490 -62.649347 11.079559 -32.787577 84.941808 -37.105667 -10.887672 -18.786255 13.830111 0.387526 -0.017419 -0.333402 18.024802 -56.771532 -22.343705 68.464945 71.558789 69.594502 -7.343666 -15.014864 0.983102 0.243025 0.853907 0.122561
-51.379788 56.278184 -18.643073 -176.726557 -12.724382 -0.506585 -0.769309 15.761003 -0.502296 -0.019315 1.557553 0.037267 -0.041502 2.625651 0.086950 -0.137575 14.156689 0.299751 0.265088 10.779650 3.767751 -0.592663 -14.313870 3.968835 0.211235 -0.842595 1.856397 -0.036346 -8.367325 -7.415413 -78.495909 -54.051314 113.228100 -18.206434 -10.500597 -4.074835 -8.187003 -2.836341 1.929057 0.662727 -14.843264 8.306578 62.922937 -49.881191 -110.211979 8.953879 -5.055320 0.182603 -3.740788 -62.627851 11.099530 -32.551204 84.944995 -36.884351 -10.902178 -18.840904 13.917188 0.373738 -0.047772 -0.303846 18.059504 -56.748935 -22.370386 68.378515 71.546291 69.517149 -7.359831 -14.994900 0.993515 0.246417 0.855210 0.126170
-51.383999 56.281869 -18.633800 -176.726754 -12.742843 -0.514623 -0.760724 15.761290 -0.511745 -0.017738 1.559592 0.036366 -0.037917 2.626097 0.081291 -0.123769 14.167664 0.296529 0.238927 10.755685 3.913949 -0.655619 -14.338581 4.136971 0.206521 -0.845477 1.870160 -0.026350 -8.374600 -7.435960 -78.488782 -54.043389 113.224498 -18.210824 -10.463966 -4.050058 -8.084598 -2.810807 1.906072 0.569727 -14.720334 8.346066 62.801749 -49.866515 -110.133047 8.937012 -5.031219 0.174727 -3.819040 -62.598064 11.138535 -32.291745 84.947744 -36.639037 -10.883506 -18.877816 13.949018 0.351431 -0.090431 -0.238245 18.081471 -56.721852 -22.375938 68.297462 71.540909 69.450478 -7.368867 -14.981472 0.996491 0.255060 0.857367 0.131175
